<mxfile host="app.diagrams.net" modified="2023-03-02T03:45:14.503Z" agent="5.0 (Windows NT 10.0; Win64; x64) AppleWebKit/537.36 (KHTML, like Gecko) Chrome/110.0.0.0 Safari/537.36" etag="52UWrnc38DatkskJtfD9" version="20.8.23" type="github">
  <diagram name="Página-1" id="24-zEWXrGd03R6LPxOo0">
    <mxGraphModel dx="700" dy="387" grid="1" gridSize="10" guides="1" tooltips="1" connect="1" arrows="1" fold="1" page="1" pageScale="1" pageWidth="1600" pageHeight="1200" math="0" shadow="0">
      <root>
        <mxCell id="0" />
        <mxCell id="1" parent="0" />
        <mxCell id="6x4voKGVuKPVPqNz548D-1" value="&lt;font style=&quot;font-size: 6px;&quot;&gt;SPRING&lt;/font&gt;" style="rounded=1;whiteSpace=wrap;html=1;fillColor=#d5e8d4;strokeColor=#82b366;" vertex="1" parent="1">
          <mxGeometry x="350" y="270" width="40" height="20" as="geometry" />
        </mxCell>
        <mxCell id="6x4voKGVuKPVPqNz548D-2" value="" style="curved=1;endArrow=classic;html=1;rounded=0;fontSize=6;exitX=1;exitY=0.5;exitDx=0;exitDy=0;" edge="1" parent="1" source="6x4voKGVuKPVPqNz548D-1" target="6x4voKGVuKPVPqNz548D-3">
          <mxGeometry width="50" height="50" relative="1" as="geometry">
            <mxPoint x="360" y="290" as="sourcePoint" />
            <mxPoint x="480" y="110" as="targetPoint" />
            <Array as="points">
              <mxPoint x="410" y="290" />
              <mxPoint x="430" y="230" />
              <mxPoint x="400" y="220" />
              <mxPoint x="450" y="170" />
            </Array>
          </mxGeometry>
        </mxCell>
        <mxCell id="6x4voKGVuKPVPqNz548D-3" value="TRANSACCIONES" style="rounded=1;whiteSpace=wrap;html=1;fontSize=6;" vertex="1" parent="1">
          <mxGeometry x="490" y="120" width="50" height="20" as="geometry" />
        </mxCell>
        <mxCell id="6x4voKGVuKPVPqNz548D-5" value="" style="curved=1;endArrow=classic;html=1;rounded=0;fontSize=6;" edge="1" parent="1" target="6x4voKGVuKPVPqNz548D-6">
          <mxGeometry width="50" height="50" relative="1" as="geometry">
            <mxPoint x="540" y="130" as="sourcePoint" />
            <mxPoint x="620" y="110" as="targetPoint" />
            <Array as="points">
              <mxPoint x="590" y="130" />
              <mxPoint x="570" y="100" />
              <mxPoint x="580" y="90" />
            </Array>
          </mxGeometry>
        </mxCell>
        <mxCell id="6x4voKGVuKPVPqNz548D-6" value="MANEJO DE TRANSACIONES" style="rounded=1;whiteSpace=wrap;html=1;fontSize=6;" vertex="1" parent="1">
          <mxGeometry x="690" y="110" width="60" height="20" as="geometry" />
        </mxCell>
        <mxCell id="6x4voKGVuKPVPqNz548D-21" style="edgeStyle=orthogonalEdgeStyle;rounded=0;orthogonalLoop=1;jettySize=auto;html=1;exitX=0.25;exitY=1;exitDx=0;exitDy=0;fontSize=6;" edge="1" parent="1" source="6x4voKGVuKPVPqNz548D-8" target="6x4voKGVuKPVPqNz548D-19">
          <mxGeometry relative="1" as="geometry" />
        </mxCell>
        <mxCell id="6x4voKGVuKPVPqNz548D-8" value="@Transaction" style="rounded=1;whiteSpace=wrap;html=1;fontSize=6;fillColor=#fff2cc;strokeColor=#d6b656;" vertex="1" parent="1">
          <mxGeometry x="490" y="180" width="70" height="20" as="geometry" />
        </mxCell>
        <mxCell id="6x4voKGVuKPVPqNz548D-9" value="" style="endArrow=classic;html=1;rounded=0;fontSize=6;exitX=0.75;exitY=1;exitDx=0;exitDy=0;entryX=0.5;entryY=0;entryDx=0;entryDy=0;" edge="1" parent="1" source="6x4voKGVuKPVPqNz548D-3" target="6x4voKGVuKPVPqNz548D-8">
          <mxGeometry width="50" height="50" relative="1" as="geometry">
            <mxPoint x="580" y="240" as="sourcePoint" />
            <mxPoint x="630" y="190" as="targetPoint" />
          </mxGeometry>
        </mxCell>
        <mxCell id="6x4voKGVuKPVPqNz548D-10" value="value : nombre de la transacción&lt;br&gt;propagation:&amp;nbsp;" style="whiteSpace=wrap;html=1;aspect=fixed;fontSize=6;" vertex="1" parent="1">
          <mxGeometry x="535" y="230" width="80" height="80" as="geometry" />
        </mxCell>
        <mxCell id="6x4voKGVuKPVPqNz548D-11" value="" style="endArrow=none;html=1;rounded=0;fontSize=6;exitX=0.5;exitY=0;exitDx=0;exitDy=0;exitPerimeter=0;" edge="1" parent="1" source="6x4voKGVuKPVPqNz548D-10" target="6x4voKGVuKPVPqNz548D-8">
          <mxGeometry width="50" height="50" relative="1" as="geometry">
            <mxPoint x="580" y="240" as="sourcePoint" />
            <mxPoint x="630" y="190" as="targetPoint" />
          </mxGeometry>
        </mxCell>
        <mxCell id="6x4voKGVuKPVPqNz548D-12" value="" style="endArrow=none;html=1;rounded=0;fontSize=6;exitX=1;exitY=0.5;exitDx=0;exitDy=0;" edge="1" parent="1" source="6x4voKGVuKPVPqNz548D-10" target="6x4voKGVuKPVPqNz548D-13">
          <mxGeometry width="50" height="50" relative="1" as="geometry">
            <mxPoint x="580" y="240" as="sourcePoint" />
            <mxPoint x="630" y="190" as="targetPoint" />
          </mxGeometry>
        </mxCell>
        <mxCell id="6x4voKGVuKPVPqNz548D-13" value="Propagaciones:&amp;nbsp;&lt;br&gt;Propagation.REQUIRED : se crea una sola transaccion y une con la que esta existente&amp;nbsp; Propagation.REQUIRES_NEW&lt;br&gt;Crea una transaccion independiente&amp;nbsp;&lt;br&gt;Propagation.MANDATORY&lt;br&gt;" style="whiteSpace=wrap;html=1;aspect=fixed;fontSize=6;fillColor=#f8cecc;strokeColor=#b85450;" vertex="1" parent="1">
          <mxGeometry x="650" y="230" width="80" height="80" as="geometry" />
        </mxCell>
        <mxCell id="6x4voKGVuKPVPqNz548D-14" value="" style="endArrow=none;html=1;rounded=0;fontSize=6;exitX=1;exitY=0.75;exitDx=0;exitDy=0;entryX=0.5;entryY=0;entryDx=0;entryDy=0;" edge="1" parent="1" source="6x4voKGVuKPVPqNz548D-3" target="6x4voKGVuKPVPqNz548D-15">
          <mxGeometry width="50" height="50" relative="1" as="geometry">
            <mxPoint x="580" y="210" as="sourcePoint" />
            <mxPoint x="630" y="160" as="targetPoint" />
          </mxGeometry>
        </mxCell>
        <mxCell id="6x4voKGVuKPVPqNz548D-15" value="¿Qué es una transaccion?&lt;br&gt;Toda operacion de escritura/lectura" style="rounded=1;whiteSpace=wrap;html=1;fontSize=6;" vertex="1" parent="1">
          <mxGeometry x="590" y="150" width="80" height="30" as="geometry" />
        </mxCell>
        <mxCell id="6x4voKGVuKPVPqNz548D-16" value="" style="endArrow=none;html=1;rounded=0;fontSize=6;" edge="1" parent="1">
          <mxGeometry width="50" height="50" relative="1" as="geometry">
            <mxPoint x="750" y="120" as="sourcePoint" />
            <mxPoint x="820" y="120" as="targetPoint" />
          </mxGeometry>
        </mxCell>
        <mxCell id="6x4voKGVuKPVPqNz548D-18" value="" style="edgeStyle=orthogonalEdgeStyle;rounded=0;orthogonalLoop=1;jettySize=auto;html=1;fontSize=6;" edge="1" parent="1" source="6x4voKGVuKPVPqNz548D-17" target="6x4voKGVuKPVPqNz548D-6">
          <mxGeometry relative="1" as="geometry" />
        </mxCell>
        <mxCell id="6x4voKGVuKPVPqNz548D-17" value="Declarativas : Uso de la anotacion&lt;br&gt;Imperativas: Uso de TransactionTemplate&amp;nbsp;&lt;br&gt;" style="whiteSpace=wrap;html=1;aspect=fixed;fontSize=6;" vertex="1" parent="1">
          <mxGeometry x="830" y="80" width="80" height="80" as="geometry" />
        </mxCell>
        <mxCell id="6x4voKGVuKPVPqNz548D-19" value="La anotacion @Transaccion crea un proxy dinamico, intercepta llamada y da funcinalidad adicional es una herramienta de spring AOP" style="rounded=1;whiteSpace=wrap;html=1;fontSize=6;" vertex="1" parent="1">
          <mxGeometry x="430" y="260" width="90" height="40" as="geometry" />
        </mxCell>
        <mxCell id="6x4voKGVuKPVPqNz548D-23" value="Aspect{&lt;br&gt;-Inicia la transaccion&lt;br&gt;.Llama al metodo&lt;br&gt;.commit transaccion&lt;br&gt;.close&lt;br&gt;&amp;nbsp;}" style="rounded=0;whiteSpace=wrap;html=1;fontSize=6;" vertex="1" parent="1">
          <mxGeometry x="430" y="330" width="90" height="50" as="geometry" />
        </mxCell>
        <mxCell id="6x4voKGVuKPVPqNz548D-24" value="" style="endArrow=none;html=1;rounded=0;fontSize=6;exitX=0.5;exitY=1;exitDx=0;exitDy=0;entryX=0.5;entryY=0;entryDx=0;entryDy=0;" edge="1" parent="1" source="6x4voKGVuKPVPqNz548D-19" target="6x4voKGVuKPVPqNz548D-23">
          <mxGeometry width="50" height="50" relative="1" as="geometry">
            <mxPoint x="580" y="280" as="sourcePoint" />
            <mxPoint x="630" y="230" as="targetPoint" />
          </mxGeometry>
        </mxCell>
      </root>
    </mxGraphModel>
  </diagram>
</mxfile>
